# xmcd
#
# Track frame offsets: 
#        150
#        10862
#        47912
#        62150
#        91440
#        122101
#        141806
#        160880
#        176607
#        201825
#        211697
#        229037
#        245582
#        268793
#        287990
#        300417
#
# Disc length: 4357 seconds
#
# Revision: 0
# Processed by: cddbd v1.5.2PL0 Copyright (c) Steve Scherf et al.
# Submitted via: ExactAudioCopy v0.95b4
#
DISCID=e6110310
DTITLE=Jakub Skrdla - CD 1 Jak jsem cestoval s Hop Tropem po australii
DYEAR=2008
DGENRE=Comedy
TTITLE0=01 Úvod
TTITLE1=02 Hurá do letadla
TTITLE2=03 Konecne u protinozcu
TTITLE3=04 Únos letadla
TTITLE4=05 První koncert a první opalování
TTITLE5=06 Porouchané vozidlo
TTITLE6=07 12 apostolù
TTITLE7=08 Z divoèiny do Melbourne
TTITLE8=09 Z Melbourne za klokany
TTITLE9=10 Jak se stal Huberták zlatokopem
TTITLE10=11 Útok zákeøných much
TTITLE11=12 Daleko od civilizace
TTITLE12=13 Dosazení vrcholu
TTITLE13=14 Koncert na velvyslanectví
TTITLE14=15 Skalièkova samohonka
TTITLE15=16 Plavba lodí
EXTD=
EXTT0=
EXTT1=
EXTT2=
EXTT3=
EXTT4=
EXTT5=
EXTT6=
EXTT7=
EXTT8=
EXTT9=
EXTT10=
EXTT11=
EXTT12=
EXTT13=
EXTT14=
EXTT15=
PLAYORDER=
